<svg width="96" height="44" viewBox="0 0 96 44" fill="none" xmlns="http://www.w3.org/2000/svg">
<path d="M27.5703 36.7438V22.9438H30.4503V36.7438H27.5703ZM33.5226 36.7438V26.1838H39.3626C41.5226 26.1838 42.6026 27.2638 42.6026 29.4238V36.7438H39.8426V29.2238C39.8426 28.7971 39.6293 28.5838 39.2026 28.5838H36.2826V36.7438H33.5226ZM44.3176 26.6038L44.5976 26.1838H46.9776L49.4176 34.3438H49.6176L52.0576 26.1838H54.4376L54.7176 26.6038L51.5376 36.7438H47.4976L44.3176 26.6038ZM56.5109 36.7438V26.1838H59.2709V36.7438H56.5109ZM56.1909 23.9638L58.9509 20.8238L60.4509 22.2438L57.4909 25.2238L56.1909 23.9638ZM61.9955 33.5038V29.4238C61.9955 27.2638 63.0755 26.1838 65.2355 26.1838H68.9555L70.1555 27.0838V28.5838H65.3955C64.9688 28.5838 64.7555 28.7971 64.7555 29.2238V33.7038C64.7555 34.1305 64.9688 34.3438 65.3955 34.3438H70.1555V35.8438L68.9555 36.7438H65.2355C63.0755 36.7438 61.9955 35.6638 61.9955 33.5038ZM72.427 33.5038V22.9438H75.187V26.1838H78.627V28.5838H75.187V33.7038C75.187 34.1305 75.4004 34.3438 75.827 34.3438H78.827V35.8438L77.627 36.7438H75.667C73.507 36.7438 72.427 35.6638 72.427 33.5038ZM83.6636 36.7438C81.5036 36.7438 80.4236 35.6838 80.4236 33.5638C80.4236 31.4438 81.5036 30.3838 83.6636 30.3838H86.4236V29.2238C86.4236 28.7971 86.2102 28.5838 85.7836 28.5838H81.5436V27.0838L82.7436 26.1838H85.9436C88.1036 26.1838 89.1836 27.2638 89.1836 29.4238V36.7438H83.6636ZM83.1836 33.7038C83.1836 34.1305 83.3969 34.3438 83.8236 34.3438H86.4236V32.5038H83.8236C83.3969 32.5038 83.1836 32.7171 83.1836 33.1438V33.7038Z" fill="black"/>
<path d="M17.4714 0L20.6019 20.9245H14.341L17.4714 0Z" fill="#577399"/>
<path d="M17.4714 40.9587L20.6019 20.4793H14.341L17.4714 40.9587Z" fill="#577399"/>
<path d="M0.0224259 21.6769L17.5235 18.4356L17.5623 24.6043L0.0224259 21.6769Z" fill="#577399"/>
<path d="M34.3178 21.3696L17.1507 18.4389L17.1895 24.6077L34.3178 21.3696Z" fill="#577399"/>
<path d="M9.31777 28.9215L15.5676 20.4073L18.1409 23.0818L9.31777 28.9215Z" fill="#577399"/>
<path d="M24.8991 14.5524L16.4387 20.528L19.1033 23.1142L24.8991 14.5524Z" fill="#577399"/>
<path d="M9.85322 14.6634L19.0499 19.9833L16.5928 22.7618L9.85322 14.6634Z" fill="#577399"/>
<path d="M25.4393 29.641L19.7628 21.0437L17.0204 23.5497L25.4393 29.641Z" fill="#577399"/>
</svg>
