<svg width="148" height="23" viewBox="0 0 148 23" fill="none" xmlns="http://www.w3.org/2000/svg">
<path d="M2.11 22.24C1.53 22.24 1.08 22.08 0.76 21.76C0.46 21.44 0.31 20.98 0.31 20.38V2.53C0.31 1.91 0.46 1.44 0.76 1.12C1.08 0.779998 1.49 0.609998 1.99 0.609998C2.45 0.609998 2.79 0.699998 3.01 0.879998C3.25 1.04 3.53 1.32 3.85 1.72L15.34 16.63H14.56V2.44C14.56 1.86 14.71 1.41 15.01 1.09C15.33 0.769999 15.78 0.609998 16.36 0.609998C16.94 0.609998 17.38 0.769999 17.68 1.09C17.98 1.41 18.13 1.86 18.13 2.44V20.44C18.13 21 17.99 21.44 17.71 21.76C17.43 22.08 17.05 22.24 16.57 22.24C16.11 22.24 15.74 22.15 15.46 21.97C15.2 21.79 14.91 21.5 14.59 21.1L3.13 6.19H3.88V20.38C3.88 20.98 3.73 21.44 3.43 21.76C3.13 22.08 2.69 22.24 2.11 22.24ZM29.0814 22.3C27.5614 22.3 26.2414 21.99 25.1214 21.37C24.0014 20.75 23.1314 19.87 22.5114 18.73C21.8914 17.57 21.5814 16.21 21.5814 14.65C21.5814 13.47 21.7514 12.42 22.0914 11.5C22.4514 10.56 22.9614 9.76 23.6214 9.1C24.2814 8.42 25.0714 7.91 25.9914 7.57C26.9114 7.21 27.9414 7.03 29.0814 7.03C30.6014 7.03 31.9214 7.34 33.0414 7.96C34.1614 8.58 35.0314 9.46 35.6514 10.6C36.2714 11.74 36.5814 13.09 36.5814 14.65C36.5814 15.83 36.4014 16.89 36.0414 17.83C35.7014 18.77 35.2014 19.58 34.5414 20.26C33.8814 20.92 33.0914 21.43 32.1714 21.79C31.2514 22.13 30.2214 22.3 29.0814 22.3ZM29.0814 19.45C29.8214 19.45 30.4714 19.27 31.0314 18.91C31.5914 18.55 32.0214 18.02 32.3214 17.32C32.6414 16.6 32.8014 15.71 32.8014 14.65C32.8014 13.05 32.4614 11.86 31.7814 11.08C31.1014 10.28 30.2014 9.88 29.0814 9.88C28.3414 9.88 27.6914 10.06 27.1314 10.42C26.5714 10.76 26.1314 11.29 25.8114 12.01C25.5114 12.71 25.3614 13.59 25.3614 14.65C25.3614 16.23 25.7014 17.43 26.3814 18.25C27.0614 19.05 27.9614 19.45 29.0814 19.45ZM45.3236 22.24C44.8236 22.24 44.3836 22.11 44.0036 21.85C43.6436 21.59 43.3436 21.19 43.1036 20.65L38.3336 9.58C38.1536 9.14 38.0836 8.73 38.1236 8.35C38.1836 7.97 38.3636 7.67 38.6636 7.45C38.9836 7.21 39.4136 7.09 39.9536 7.09C40.4136 7.09 40.7836 7.2 41.0636 7.42C41.3436 7.62 41.5936 8.01 41.8136 8.59L45.8636 18.7H44.9636L49.1336 8.56C49.3536 8 49.6036 7.62 49.8836 7.42C50.1836 7.2 50.5836 7.09 51.0836 7.09C51.5236 7.09 51.8736 7.21 52.1336 7.45C52.3936 7.67 52.5536 7.97 52.6136 8.35C52.6736 8.71 52.6036 9.11 52.4036 9.55L47.5436 20.65C47.3236 21.19 47.0236 21.59 46.6436 21.85C46.2836 22.11 45.8436 22.24 45.3236 22.24ZM59.7409 22.3C58.6809 22.3 57.7309 22.1 56.8909 21.7C56.0709 21.28 55.4209 20.72 54.9409 20.02C54.4809 19.32 54.2509 18.53 54.2509 17.65C54.2509 16.57 54.5309 15.72 55.0909 15.1C55.6509 14.46 56.5609 14 57.8209 13.72C59.0809 13.44 60.7709 13.3 62.8909 13.3H64.3909V15.46H62.9209C61.6809 15.46 60.6909 15.52 59.9509 15.64C59.2109 15.76 58.6809 15.97 58.3609 16.27C58.0609 16.55 57.9109 16.95 57.9109 17.47C57.9109 18.13 58.1409 18.67 58.6009 19.09C59.0609 19.51 59.7009 19.72 60.5209 19.72C61.1809 19.72 61.7609 19.57 62.2609 19.27C62.7809 18.95 63.1909 18.52 63.4909 17.98C63.7909 17.44 63.9409 16.82 63.9409 16.12V12.67C63.9409 11.67 63.7209 10.95 63.2809 10.51C62.8409 10.07 62.1009 9.85 61.0609 9.85C60.4809 9.85 59.8509 9.92 59.1709 10.06C58.5109 10.2 57.8109 10.44 57.0709 10.78C56.6909 10.96 56.3509 11.01 56.0509 10.93C55.7709 10.85 55.5509 10.69 55.3909 10.45C55.2309 10.19 55.1509 9.91 55.1509 9.61C55.1509 9.31 55.2309 9.02 55.3909 8.74C55.5509 8.44 55.8209 8.22 56.2009 8.08C57.1209 7.7 58.0009 7.43 58.8409 7.27C59.7009 7.11 60.4809 7.03 61.1809 7.03C62.6209 7.03 63.8009 7.25 64.7209 7.69C65.6609 8.13 66.3609 8.8 66.8209 9.7C67.2809 10.58 67.5109 11.72 67.5109 13.12V20.32C67.5109 20.94 67.3609 21.42 67.0609 21.76C66.7609 22.08 66.3309 22.24 65.7709 22.24C65.2109 22.24 64.7709 22.08 64.4509 21.76C64.1509 21.42 64.0009 20.94 64.0009 20.32V18.88H64.2409C64.1009 19.58 63.8209 20.19 63.4009 20.71C63.0009 21.21 62.4909 21.6 61.8709 21.88C61.2509 22.16 60.5409 22.3 59.7409 22.3ZM86.8417 22.24C86.2217 22.24 85.7417 22.07 85.4017 21.73C85.0817 21.37 84.9217 20.88 84.9217 20.26V4.06H79.0717C78.5517 4.06 78.1417 3.92 77.8417 3.64C77.5617 3.34 77.4217 2.94 77.4217 2.44C77.4217 1.92 77.5617 1.53 77.8417 1.27C78.1417 0.989999 78.5517 0.849999 79.0717 0.849999H94.6117C95.1317 0.849999 95.5317 0.989999 95.8117 1.27C96.1117 1.53 96.2617 1.92 96.2617 2.44C96.2617 2.94 96.1117 3.34 95.8117 3.64C95.5317 3.92 95.1317 4.06 94.6117 4.06H88.7617V20.26C88.7617 20.88 88.6017 21.37 88.2817 21.73C87.9617 22.07 87.4817 22.24 86.8417 22.24ZM102.981 22.3C101.321 22.3 99.8908 21.99 98.6908 21.37C97.4908 20.75 96.5608 19.87 95.9008 18.73C95.2608 17.59 94.9408 16.24 94.9408 14.68C94.9408 13.16 95.2508 11.83 95.8708 10.69C96.5108 9.55 97.3808 8.66 98.4808 8.02C99.6008 7.36 100.871 7.03 102.291 7.03C103.331 7.03 104.261 7.2 105.081 7.54C105.921 7.88 106.631 8.37 107.211 9.01C107.811 9.65 108.261 10.43 108.561 11.35C108.881 12.25 109.041 13.27 109.041 14.41C109.041 14.77 108.911 15.05 108.651 15.25C108.411 15.43 108.061 15.52 107.601 15.52H97.9708V13.36H106.401L105.921 13.81C105.921 12.89 105.781 12.12 105.501 11.5C105.241 10.88 104.851 10.41 104.331 10.09C103.831 9.75 103.201 9.58 102.441 9.58C101.601 9.58 100.881 9.78 100.281 10.18C99.7008 10.56 99.2508 11.11 98.9308 11.83C98.6308 12.53 98.4808 13.37 98.4808 14.35V14.56C98.4808 16.2 98.8608 17.43 99.6208 18.25C100.401 19.05 101.541 19.45 103.041 19.45C103.561 19.45 104.141 19.39 104.781 19.27C105.441 19.13 106.061 18.9 106.641 18.58C107.061 18.34 107.431 18.24 107.751 18.28C108.071 18.3 108.321 18.41 108.501 18.61C108.701 18.81 108.821 19.06 108.861 19.36C108.901 19.64 108.841 19.93 108.681 20.23C108.541 20.53 108.291 20.79 107.931 21.01C107.231 21.45 106.421 21.78 105.501 22C104.601 22.2 103.761 22.3 102.981 22.3ZM113.931 22.24C113.311 22.24 112.831 22.08 112.491 21.76C112.171 21.42 112.011 20.94 112.011 20.32V8.98C112.011 8.36 112.171 7.89 112.491 7.57C112.811 7.25 113.261 7.09 113.841 7.09C114.421 7.09 114.871 7.25 115.191 7.57C115.511 7.89 115.671 8.36 115.671 8.98V10.87H115.371C115.651 9.67 116.201 8.76 117.021 8.14C117.841 7.52 118.931 7.15 120.291 7.03C120.711 6.99 121.041 7.1 121.281 7.36C121.541 7.6 121.691 7.98 121.731 8.5C121.771 9 121.651 9.41 121.371 9.73C121.111 10.03 120.711 10.21 120.171 10.27L119.511 10.33C118.291 10.45 117.371 10.83 116.751 11.47C116.131 12.09 115.821 12.97 115.821 14.11V20.32C115.821 20.94 115.661 21.42 115.341 21.76C115.021 22.08 114.551 22.24 113.931 22.24ZM125.679 22.24C125.059 22.24 124.579 22.08 124.239 21.76C123.919 21.42 123.759 20.94 123.759 20.32V8.98C123.759 8.36 123.919 7.89 124.239 7.57C124.559 7.25 125.009 7.09 125.589 7.09C126.169 7.09 126.619 7.25 126.939 7.57C127.259 7.89 127.419 8.36 127.419 8.98V10.87H127.119C127.399 9.67 127.949 8.76 128.769 8.14C129.589 7.52 130.679 7.15 132.039 7.03C132.459 6.99 132.789 7.1 133.029 7.36C133.289 7.6 133.439 7.98 133.479 8.5C133.519 9 133.399 9.41 133.119 9.73C132.859 10.03 132.459 10.21 131.919 10.27L131.259 10.33C130.039 10.45 129.119 10.83 128.499 11.47C127.879 12.09 127.569 12.97 127.569 14.11V20.32C127.569 20.94 127.409 21.42 127.089 21.76C126.769 22.08 126.299 22.24 125.679 22.24ZM140.19 22.3C139.13 22.3 138.18 22.1 137.34 21.7C136.52 21.28 135.87 20.72 135.39 20.02C134.93 19.32 134.7 18.53 134.7 17.65C134.7 16.57 134.98 15.72 135.54 15.1C136.1 14.46 137.01 14 138.27 13.72C139.53 13.44 141.22 13.3 143.34 13.3H144.84V15.46H143.37C142.13 15.46 141.14 15.52 140.4 15.64C139.66 15.76 139.13 15.97 138.81 16.27C138.51 16.55 138.36 16.95 138.36 17.47C138.36 18.13 138.59 18.67 139.05 19.09C139.51 19.51 140.15 19.72 140.97 19.72C141.63 19.72 142.21 19.57 142.71 19.27C143.23 18.95 143.64 18.52 143.94 17.98C144.24 17.44 144.39 16.82 144.39 16.12V12.67C144.39 11.67 144.17 10.95 143.73 10.51C143.29 10.07 142.55 9.85 141.51 9.85C140.93 9.85 140.3 9.92 139.62 10.06C138.96 10.2 138.26 10.44 137.52 10.78C137.14 10.96 136.8 11.01 136.5 10.93C136.22 10.85 136 10.69 135.84 10.45C135.68 10.19 135.6 9.91 135.6 9.61C135.6 9.31 135.68 9.02 135.84 8.74C136 8.44 136.27 8.22 136.65 8.08C137.57 7.7 138.45 7.43 139.29 7.27C140.15 7.11 140.93 7.03 141.63 7.03C143.07 7.03 144.25 7.25 145.17 7.69C146.11 8.13 146.81 8.8 147.27 9.7C147.73 10.58 147.96 11.72 147.96 13.12V20.32C147.96 20.94 147.81 21.42 147.51 21.76C147.21 22.08 146.78 22.24 146.22 22.24C145.66 22.24 145.22 22.08 144.9 21.76C144.6 21.42 144.45 20.94 144.45 20.32V18.88H144.69C144.55 19.58 144.27 20.19 143.85 20.71C143.45 21.21 142.94 21.6 142.32 21.88C141.7 22.16 140.99 22.3 140.19 22.3Z" fill="#191A23"/>
</svg>
