<svg width="35" height="41" viewBox="0 0 35 41" fill="none" xmlns="http://www.w3.org/2000/svg">
<path d="M17.4714 0L20.6019 20.9245H14.341L17.4714 0Z" fill="#577399"/>
<path d="M17.4714 40.9587L20.6019 20.4793H14.341L17.4714 40.9587Z" fill="#577399"/>
<path d="M0.0224259 21.6769L17.5235 18.4356L17.5623 24.6043L0.0224259 21.6769Z" fill="#577399"/>
<path d="M34.3178 21.3696L17.1507 18.4389L17.1895 24.6077L34.3178 21.3696Z" fill="#577399"/>
<path d="M9.31777 28.9215L15.5676 20.4073L18.1409 23.0818L9.31777 28.9215Z" fill="#577399"/>
<path d="M24.8991 14.5524L16.4387 20.528L19.1033 23.1142L24.8991 14.5524Z" fill="#577399"/>
<path d="M9.85322 14.6634L19.0499 19.9833L16.5928 22.7618L9.85322 14.6634Z" fill="#577399"/>
<path d="M25.4393 29.641L19.7628 21.0437L17.0204 23.5497L25.4393 29.641Z" fill="#577399"/>
</svg>
